<?xml version="1.0" encoding="utf-8"?>
<!-- Generator: Adobe Illustrator 16.0.4, SVG Export Plug-In . SVG Version: 6.00 Build 0)  -->
<!DOCTYPE svg PUBLIC "-//W3C//DTD SVG 1.1//EN" "http://www.w3.org/Graphics/SVG/1.1/DTD/svg11.dtd">
<svg version="1.1" id="Layer_1" xmlns="http://www.w3.org/2000/svg" xmlns:xlink="http://www.w3.org/1999/xlink" x="0px" y="0px"
	 width="64px" height="64px" viewBox="0 0 64 64" enable-background="new 0 0 64 64" xml:space="preserve">
<g>
	<path fill-rule="evenodd" clip-rule="evenodd" d="M60.334,36.111c-0.977-1.127-2.734-0.961-3.516,0.308
		c-0.742,1.201-1.49,2.396-2.236,3.595c-1.041,1.674-2.086,3.346-3.127,5.02c-1.121,1.803-2.238,3.607-3.358,5.411
		c-0.162,0.261-0.327,0.52-0.505,0.801c-0.057-0.068-0.102-0.119-0.143-0.173c-0.443-0.585-0.887-1.172-1.33-1.758
		c-0.699-0.925-1.411-1.843-2.097-2.778c-0.481-0.657-1.103-0.998-1.917-1.001c-0.893-0.002-1.787,0.681-2.012,1.543
		c-0.029,0.111-0.068,0.22-0.104,0.329c0,0.199,0,0.397,0,0.596c0.04,0.134,0.078,0.268,0.119,0.4
		c0.148,0.476,0.486,0.833,0.774,1.218c0.786,1.05,1.581,2.093,2.372,3.139c0.781,1.032,1.562,2.063,2.344,3.096
		c0.146,0.194,0.295,0.39,0.444,0.583c0.344,0.445,0.799,0.705,1.347,0.812c0.033,0.006,0.064,0.023,0.097,0.035
		c0.187,0,0.374,0,0.561,0c0.038-0.012,0.075-0.028,0.113-0.036c0.665-0.142,1.161-0.513,1.517-1.091
		c0.776-1.261,1.559-2.519,2.34-3.776c0.712-1.145,1.428-2.286,2.139-3.43c0.613-0.985,1.224-1.972,1.838-2.957
		c0.789-1.268,1.582-2.533,2.371-3.8c0.705-1.135,1.398-2.276,2.115-3.402C61.08,37.854,60.945,36.818,60.334,36.111z"/>
	<path fill-rule="evenodd" clip-rule="evenodd" d="M47.084,25.214c0.691-8.558-4.631-16.164-12.783-18.262
		c-0.781-0.201-1.572-0.367-2.359-0.549c-1.244,0-2.489,0-3.734,0c-0.86,0.207-1.731,0.371-2.577,0.627
		c-6.549,1.979-10.8,6.285-12.231,12.953c-1.458,6.795,0.891,12.457,6.077,16.989c0.404,0.354,0.838,0.675,1.288,1.035
		c-1.455,0.751-2.877,1.382-4.195,2.186c-5.811,3.545-9.764,8.558-11.746,15.096c-0.111,0.363-0.281,0.71-0.423,1.063
		c0,0.467,0,0.934,0,1.4c1.011-0.007,2.024-0.059,3.032-0.005c0.746,0.04,1.039-0.19,1.257-0.951
		c2.115-7.349,6.788-12.333,13.969-14.989c2.865-1.06,5.861-1.068,8.841-1.308C39.651,39.846,46.441,33.155,47.084,25.214z
		 M30.008,36.362c-7.07-0.029-12.8-5.803-12.789-12.885c0.012-7.05,5.82-12.843,12.864-12.829
		c7.108,0.014,12.879,5.837,12.846,12.964C42.898,30.663,37.093,36.391,30.008,36.362z"/>
</g>
</svg>
