<?xml version="1.0" encoding="utf-8"?>
<!-- Generator: Adobe Illustrator 16.0.4, SVG Export Plug-In . SVG Version: 6.00 Build 0)  -->
<!DOCTYPE svg PUBLIC "-//W3C//DTD SVG 1.1//EN" "http://www.w3.org/Graphics/SVG/1.1/DTD/svg11.dtd">
<svg version="1.1" id="Layer_1" xmlns="http://www.w3.org/2000/svg" xmlns:xlink="http://www.w3.org/1999/xlink" x="0px" y="0px"
	 width="64px" height="64px" viewBox="0 0 64 64" enable-background="new 0 0 64 64" xml:space="preserve">
<g>
	<path fill-rule="evenodd" clip-rule="evenodd" d="M49.439,24.865c0.692-8.582-4.644-16.211-12.82-18.314
		C35.835,6.349,35.042,6.183,34.254,6c-1.25,0-2.498,0-3.746,0c-0.862,0.207-1.737,0.373-2.585,0.629
		c-6.568,1.984-10.831,6.305-12.267,12.99c-1.462,6.815,0.894,12.493,6.094,17.04c0.406,0.354,0.84,0.677,1.292,1.038
		c-1.458,0.753-2.886,1.387-4.208,2.192c-5.828,3.555-9.792,8.583-11.78,15.139c-0.111,0.365-0.282,0.712-0.424,1.067
		c0,0.468,0,0.937,0,1.404c1.014-0.007,2.03-0.059,3.041-0.005c0.748,0.041,1.041-0.191,1.261-0.954
		c2.121-7.369,6.808-12.369,14.01-15.033c2.874-1.062,5.879-1.071,8.868-1.312C41.984,39.54,48.795,32.831,49.439,24.865z
		 M32.313,36.047c-7.091-0.029-12.838-5.819-12.826-12.922c0.012-7.07,5.837-12.881,12.901-12.867
		c7.13,0.014,12.918,5.854,12.885,13.002C45.241,30.33,39.419,36.075,32.313,36.047z"/>
	<path fill-rule="evenodd" clip-rule="evenodd" d="M51.637,46.736c0-2.159,0-4.203,0-6.256c-1.486,0-2.82,0-4.241,0
		c0,2.117,0,4.132,0,6.354c-2.22,0-4.267,0-6.313,0c0,1.437,0,2.746,0,4.199c2.119,0,4.167,0,6.357,0c0,2.223,0,4.306,0,6.384
		c1.461,0,2.773,0,4.231,0c0-1.804,0.044-3.548-0.02-5.29c-0.032-0.89,0.271-1.146,1.136-1.116c1.737,0.06,3.479,0.018,5.23,0.018
		c0-1.509,0-2.844,0-4.293C55.879,46.736,53.831,46.736,51.637,46.736z"/>
</g>
</svg>
