<?xml version="1.0" encoding="utf-8"?>
<!-- Generator: Adobe Illustrator 16.0.4, SVG Export Plug-In . SVG Version: 6.00 Build 0)  -->
<!DOCTYPE svg PUBLIC "-//W3C//DTD SVG 1.1//EN" "http://www.w3.org/Graphics/SVG/1.1/DTD/svg11.dtd">
<svg version="1.1" id="Layer_1" xmlns="http://www.w3.org/2000/svg" xmlns:xlink="http://www.w3.org/1999/xlink" x="0px" y="0px"
	 width="64px" height="64px" viewBox="0 0 64 64" enable-background="new 0 0 64 64" xml:space="preserve">
<g>
	<path fill="#A0A0A0" d="M47.682,9.205c-10.448,0-20.896,0-31.344,0c-2.234,0.678-2.916,2.284-2.906,4.489
		c0.045,9.381,0.018,27.217,0.02,36.599c0,3.265,1.217,4.482,4.481,4.483c9.381,0.001,18.763-0.025,28.144,0.019
		c2.203,0.011,3.803-0.684,4.491-2.904c0-10.448,0-29.352,0-39.799C50.125,10.612,49.164,9.647,47.682,9.205z M46.605,48.79
		c0,1.571-0.453,2.023-2.023,2.023c-8.383,0.003-16.766,0.003-25.148,0c-1.572,0-2.021-0.451-2.022-2.021
		c-0.004-4.226-0.001-16.906-0.001-21.132c0-4.157-0.002-8.314,0.001-12.471c0.001-1.571,0.453-2.024,2.023-2.024
		c8.383-0.003,16.765-0.002,25.149,0c1.571,0,2.022,0.45,2.022,2.022C46.608,23.57,46.608,40.407,46.605,48.79z"/>
	<rect x="29.88" y="39.156" fill="#A0A0A0" width="4.203" height="4.202"/>
	<polygon fill="#A0A0A0" points="29.7,26.577 30.792,37.705 33.171,37.705 34.247,26.577 34.247,21.432 29.7,21.432 	"/>
</g>
</svg>
