<?xml version="1.0" encoding="utf-8"?>
<!-- Generator: Adobe Illustrator 16.0.4, SVG Export Plug-In . SVG Version: 6.00 Build 0)  -->
<!DOCTYPE svg PUBLIC "-//W3C//DTD SVG 1.1//EN" "http://www.w3.org/Graphics/SVG/1.1/DTD/svg11.dtd">
<svg version="1.1" id="Layer_1" xmlns="http://www.w3.org/2000/svg" xmlns:xlink="http://www.w3.org/1999/xlink" x="0px" y="0px"
	 width="64px" height="64px" viewBox="0 0 64 64" enable-background="new 0 0 64 64" xml:space="preserve">
<path fill="#A0A0A0" d="M32,11c-11.598,0-21,9.402-21,21c0,11.598,9.402,21,21,21s21-9.402,21-21C53,20.402,43.598,11,32,11z
	 M34.367,43.703h-4.391v-4.391h4.391V43.703z M39.5,29.891c-0.547,0.865-1.717,2.042-3.508,3.531
	c-0.928,0.771-1.503,1.391-1.727,1.859c-0.225,0.469-0.326,1.308-0.305,2.516h-3.984c-0.011-0.572-0.016-0.922-0.016-1.047
	c0-1.291,0.213-2.354,0.641-3.188c0.427-0.833,1.281-1.771,2.562-2.812c1.281-1.042,2.047-1.724,2.297-2.047
	c0.385-0.51,0.578-1.073,0.578-1.688c0-0.854-0.342-1.586-1.023-2.195c-0.683-0.609-1.602-0.914-2.758-0.914
	c-1.115,0-2.047,0.318-2.797,0.953c-0.75,0.636-1.266,1.604-1.547,2.906l-4.031-0.5c0.114-1.864,0.908-3.448,2.383-4.75
	c1.474-1.302,3.408-1.953,5.805-1.953c2.521,0,4.525,0.659,6.016,1.977c1.489,1.318,2.234,2.852,2.234,4.602
	C40.32,28.109,40.047,29.026,39.5,29.891z"/>
</svg>
