<?xml version="1.0" encoding="utf-8"?>
<!-- Generator: Adobe Illustrator 16.0.4, SVG Export Plug-In . SVG Version: 6.00 Build 0)  -->
<!DOCTYPE svg PUBLIC "-//W3C//DTD SVG 1.1//EN" "http://www.w3.org/Graphics/SVG/1.1/DTD/svg11.dtd">
<svg version="1.1" id="Layer_1" xmlns="http://www.w3.org/2000/svg" xmlns:xlink="http://www.w3.org/1999/xlink" x="0px" y="0px"
	 width="64px" height="64px" viewBox="0 0 64 64" enable-background="new 0 0 64 64" xml:space="preserve">
<g>
	<path fill-rule="evenodd" clip-rule="evenodd" d="M53.127,23.455c-5.256-8.55-15.307-12.968-24.716-10.84
		c-10.006,2.263-17.484,10.739-18.81,21.429c-0.879,7.092,0.865,13.458,5.002,19.113c0.514,0.701,1.117,0.997,1.959,0.993
		c5.55-0.023,11.101-0.012,16.65-0.012c5.569,0,11.139-0.005,16.707,0.005c0.687,0.002,1.272-0.141,1.732-0.739
		c3.107-4.056,4.922-8.681,5.334-13.869C57.447,33.727,56.142,28.359,53.127,23.455z M49.857,50.129
		c-0.246,0.372-0.507,0.528-0.955,0.527c-5.232-0.02-10.465-0.013-15.698-0.013c-5.252,0-10.503-0.004-15.755,0.009
		c-0.358,0.001-0.576-0.12-0.784-0.419c-8.884-12.687-2.145-31.085,12.532-34.202c11.278-2.396,22.387,5.669,24.254,17.612
		C54.391,39.656,53.152,45.141,49.857,50.129z"/>
	<path fill-rule="evenodd" clip-rule="evenodd" d="M26.946,33.169c-0.903-0.789-1.792-1.598-2.715-2.358
		c-0.728-0.6-1.655-0.511-2.286,0.15c-0.619,0.648-0.688,1.642-0.16,2.418c0.152,0.223,0.323,0.431,0.488,0.643
		c2.874,3.685,5.751,7.366,8.621,11.053c0.825,1.061,2.187,1.477,3.424,1.02c1.249-0.461,2.09-1.707,2.097-3.179
		c-0.04-0.96-0.405-1.827-1.17-2.495C32.478,38.004,29.712,35.586,26.946,33.169z"/>
	<path fill-rule="evenodd" clip-rule="evenodd" d="M22.224,26.868c0.27-0.116,0.427-0.52,0.622-0.78
		c-0.131-0.331-0.168-0.589-0.308-0.749c-0.478-0.546-0.971-1.082-1.498-1.573c-0.374-0.35-0.911-0.272-1.265,0.095
		c-0.35,0.363-0.438,0.939-0.111,1.334c0.474,0.574,0.969,1.147,1.538,1.606C21.436,26.989,21.931,26.994,22.224,26.868z"/>
	<path fill-rule="evenodd" clip-rule="evenodd" d="M46.683,23.731c-0.284-0.128-0.775-0.099-1.015,0.09
		c-0.544,0.428-1.049,0.949-1.447,1.526c-0.185,0.268-0.214,0.82-0.073,1.12c0.126,0.272,0.566,0.497,0.888,0.528
		c0.576,0.056,2.188-1.736,2.208-2.571C47.13,24.273,46.965,23.858,46.683,23.731z"/>
	<path fill-rule="evenodd" clip-rule="evenodd" d="M50.776,36.621c-0.703-0.047-1.412-0.053-2.115-0.004
		c-0.523,0.036-0.85,0.518-0.827,1.068c0.021,0.522,0.359,0.925,0.868,0.976c0.332,0.032,0.668,0.006,1.003,0.006
		c0.334,0,0.671,0.024,1.003-0.006c0.521-0.046,0.892-0.486,0.896-1.02C51.607,37.139,51.262,36.653,50.776,36.621z"/>
	<path fill-rule="evenodd" clip-rule="evenodd" d="M33.467,21.606c0.526-0.014,0.928-0.433,0.962-1.022
		c0.018-0.294,0.003-0.59,0.003-0.885c0-0.313,0.018-0.63-0.003-0.942c-0.037-0.553-0.432-0.961-0.933-0.991
		c-0.526-0.031-0.999,0.351-1.039,0.929c-0.045,0.646-0.042,1.298-0.005,1.944C32.485,21.217,32.947,21.621,33.467,21.606z"/>
	<path fill-rule="evenodd" clip-rule="evenodd" d="M17.652,36.61c-0.649-0.044-1.305-0.04-1.954,0
		c-0.53,0.032-0.883,0.488-0.881,1.028c0.004,0.562,0.39,0.992,0.947,1.029c0.297,0.021,0.596,0.004,0.895,0.004
		c0-0.001,0-0.002,0-0.003c0.316,0,0.635,0.021,0.949-0.005c0.52-0.042,0.906-0.482,0.917-1.007
		C18.537,37.137,18.168,36.645,17.652,36.61z"/>
</g>
</svg>
