<?xml version="1.0" encoding="utf-8"?>
<!-- Generator: Adobe Illustrator 16.0.4, SVG Export Plug-In . SVG Version: 6.00 Build 0)  -->
<!DOCTYPE svg PUBLIC "-//W3C//DTD SVG 1.1//EN" "http://www.w3.org/Graphics/SVG/1.1/DTD/svg11.dtd">
<svg version="1.1" id="Layer_1" xmlns="http://www.w3.org/2000/svg" xmlns:xlink="http://www.w3.org/1999/xlink" x="0px" y="0px"
	 width="64px" height="64px" viewBox="0 0 64 64" enable-background="new 0 0 64 64" xml:space="preserve">
<g>
	<path fill-rule="evenodd" clip-rule="evenodd" d="M58.3,23.877c0.006-1.249-0.382-1.747-1.525-1.747
		c-6.986,0-13.973-0.003-20.96,0.008c-0.412,0-0.722-0.107-1.025-0.425c-0.932-0.975-1.895-1.917-2.852-2.867
		c-3.094-3.071-7.39-3.697-11.135-1.624c-4.14,2.293-8.274,4.599-12.425,6.872c-0.681,0.373-0.943,0.869-0.94,1.675
		c0.021,5.637,0.011,11.275,0.011,16.912c0,1.316,0.372,1.701,1.622,1.7c5.589-0.003,11.179-0.002,16.769-0.003
		c0.199,0,0.398,0,0.676,0c0,0.734-0.001,1.359,0,1.984c0.002,1.072,0.404,1.522,1.388,1.522c9.634,0.002,19.268,0.002,28.903,0
		c1.087-0.001,1.482-0.437,1.482-1.618c0.003-3.063,0-6.127,0.001-9.191C58.289,32.677,58.279,28.276,58.3,23.877z M17.042,33.812
		c-0.769,0-0.768-0.001-0.768,0.85c0.001,0.566,0,1.132,0,1.781c0.254,0,0.467,0,0.68,0c2.941,0,5.883,0.011,8.825-0.011
		c0.471-0.004,0.642,0.108,0.628,0.647c-0.038,1.354-0.012,2.711-0.012,4.066c0,0.21,0,0.421,0,0.667c-5.552,0-11.042,0-16.576,0
		c-0.011-0.181-0.031-0.35-0.031-0.519c-0.001-4.872,0.005-9.742-0.008-14.614c-0.001-0.391,0.109-0.59,0.432-0.768
		c3.935-2.163,7.858-4.349,11.793-6.512c2.978-1.638,5.825-1.205,8.272,1.229c0.453,0.451,0.903,0.906,1.475,1.48
		c-1.39,0-2.6-0.003-3.811,0.002c-1.043,0.004-1.457,0.453-1.466,1.577c-0.005,0.708-0.009,1.415-0.016,2.121
		c0,0.038-0.022,0.074-0.055,0.173c-3.297,0-6.616,0-9.978,0c0,0.871,0,1.68,0,2.558c0.268,0,0.52,0,0.771,0
		c4.56-0.001,9.119-0.005,13.678,0c1.455,0,2.378,0.69,2.61,1.92c0.369,1.958-0.674,3.345-2.544,3.349
		C26.308,33.818,21.675,33.812,17.042,33.812z M55.885,45.332c-8.988,0-17.969,0-26.986,0c0-2.969,0-5.939,0-9.016
		c0.859,0,1.705,0.066,2.538-0.014c2.14-0.202,3.897-1.921,4.406-4.221c0.415-1.876-0.538-4.075-2.285-5.27
		c-0.775-0.53-1.613-0.823-2.544-0.802c-0.695,0.016-1.389,0.003-2.125,0.003c0-0.499,0-0.904,0-1.348c9.006,0,17.985,0,26.996,0
		C55.885,31.562,55.885,38.427,55.885,45.332z"/>
	<path fill-rule="evenodd" clip-rule="evenodd" d="M3,42.963c0.783,0,1.526,0,2.303,0c0-5.896,0-11.756,0-17.654
		c-0.784,0-1.542,0-2.303,0C3,31.22,3,37.083,3,42.963z"/>
</g>
</svg>
