<?xml version="1.0" encoding="utf-8"?>
<!-- Generator: Adobe Illustrator 16.0.4, SVG Export Plug-In . SVG Version: 6.00 Build 0)  -->
<!DOCTYPE svg PUBLIC "-//W3C//DTD SVG 1.1//EN" "http://www.w3.org/Graphics/SVG/1.1/DTD/svg11.dtd">
<svg version="1.1" id="Layer_1" xmlns="http://www.w3.org/2000/svg" xmlns:xlink="http://www.w3.org/1999/xlink" x="0px" y="0px"
	 width="64px" height="64px" viewBox="0 0 64 64" enable-background="new 0 0 64 64" xml:space="preserve">
<path d="M59.038,25.009c0.005-1.174-0.432-1.842-1.405-2.431C49.66,17.759,41.711,12.899,33.76,8.046
	c-0.402-0.246-0.77-0.551-1.153-0.827c-0.387,0-0.773,0-1.16,0c-0.369,0.285-0.715,0.608-1.111,0.851
	c-7.95,4.856-15.898,9.717-23.872,14.534c-0.981,0.593-1.4,1.269-1.396,2.437c0.04,9.808,0.021,19.616,0.024,29.424
	c0,2.024,0.333,2.357,2.35,2.357c16.427,0.003,32.854,0.003,49.281,0c1.994,0,2.287-0.286,2.289-2.244
	C59.018,44.722,58.998,34.865,59.038,25.009z M10.402,23.644c6.87-4.2,13.735-8.408,20.633-12.563
	c0.465-0.28,1.338-0.419,1.75-0.171c7.277,4.362,14.512,8.795,21.983,13.352c-2.253,1.373-4.29,2.613-6.583,4.011
	c0-1.321,0.018-2.36-0.004-3.4c-0.031-1.562-0.457-2.021-1.961-2.022c-9.459-0.009-18.918,0.004-28.377-0.014
	c-1.284-0.002-1.868,0.555-1.841,1.829c0.024,1.101,0.005,2.202,0.005,3.685c-2.306-1.396-4.368-2.646-6.589-3.992
	C9.831,24.056,10.102,23.827,10.402,23.644z M45.243,29.572c-0.024,0.33-0.417,0.727-0.743,0.928
	c-3.896,2.406-7.798,4.802-11.738,7.134c-0.381,0.227-1.137,0.203-1.528-0.027c-3.858-2.281-7.688-4.611-11.489-6.986
	c-0.401-0.251-0.749-0.861-0.8-1.34c-0.118-1.093-0.038-2.208-0.038-3.473c8.854,0,17.519,0,26.372,0
	C45.278,27.099,45.331,28.341,45.243,29.572z M55.994,53.859c-15.993,0-31.907,0-47.912,0c0-8.926,0-17.789,0-26.852
	c0.503,0.276,0.953,0.503,1.382,0.765c7.004,4.265,14.019,8.511,20.992,12.824c1.151,0.711,2.032,0.684,3.167-0.02
	c6.892-4.263,13.823-8.461,20.742-12.678c0.489-0.299,0.987-0.582,1.628-0.959C55.994,35.955,55.994,44.838,55.994,53.859z"/>
</svg>
