<?xml version="1.0" encoding="utf-8"?>
<!-- Generator: Adobe Illustrator 16.0.4, SVG Export Plug-In . SVG Version: 6.00 Build 0)  -->
<!DOCTYPE svg PUBLIC "-//W3C//DTD SVG 1.1//EN" "http://www.w3.org/Graphics/SVG/1.1/DTD/svg11.dtd">
<svg version="1.1" id="Layer_1" xmlns="http://www.w3.org/2000/svg" xmlns:xlink="http://www.w3.org/1999/xlink" x="0px" y="0px"
	 width="64px" height="64px" viewBox="0 0 64 64" enable-background="new 0 0 64 64" xml:space="preserve">
<g>
	<path fill-rule="evenodd" clip-rule="evenodd" d="M51.517,5.069c-12.608,0-25.218,0-37.827,0c-2.696,0.819-3.52,2.757-3.507,5.417
		c0.054,11.322,0.022,32.847,0.023,44.168c0,3.941,1.468,5.411,5.409,5.411c11.321,0.004,22.644-0.028,33.966,0.023
		c2.659,0.014,4.589-0.825,5.419-3.506c0-12.609,0-35.421,0-48.03C54.465,6.767,53.306,5.603,51.517,5.069z M50.218,52.842
		c-0.001,1.895-0.547,2.441-2.441,2.442c-10.117,0.003-20.233,0.003-30.35,0c-1.897-0.001-2.44-0.545-2.441-2.44
		c-0.004-5.1-0.001-20.402-0.001-25.502c0-5.017-0.003-10.035,0.001-15.052c0.001-1.896,0.546-2.442,2.441-2.442
		c10.117-0.004,20.234-0.003,30.35,0c1.897,0,2.44,0.543,2.441,2.44C50.221,22.405,50.221,42.725,50.218,52.842z"/>
	<path fill-rule="evenodd" clip-rule="evenodd" d="M29.825,20.317c5.333,0,10.601,0,15.869,0c0-1.584,0-3.062,0-4.571
		c-5.335,0-10.605,0-15.869,0C29.825,17.325,29.825,18.802,29.825,20.317z"/>
	<path fill-rule="evenodd" clip-rule="evenodd" d="M45.666,25.347c-5.328,0-10.562,0-15.85,0c0,1.569,0,3.046,0,4.627
		c5.357,0,10.596,0,15.85,0C45.666,28.38,45.666,26.873,45.666,25.347z"/>
	<path fill-rule="evenodd" clip-rule="evenodd" d="M29.825,39.549c5.322,0,10.558,0,15.853,0c0-1.586,0-3.09,0-4.649
		c-5.317,0-10.554,0-15.853,0C29.825,36.445,29.825,37.922,29.825,39.549z"/>
	<path fill-rule="evenodd" clip-rule="evenodd" d="M20.273,20.323c2.129,0,4.171,0,6.226,0c0-1.58,0-3.058,0-4.606
		c-2.167,0-4.181,0-6.226,0C20.273,17.295,20.273,18.801,20.273,20.323z"/>
	<path fill-rule="evenodd" clip-rule="evenodd" d="M26.455,25.339c-2.113,0-4.125,0-6.2,0c0,1.56,0,3.036,0,4.619
		c2.149,0,4.189,0,6.2,0C26.455,28.346,26.455,26.835,26.455,25.339z"/>
	<path fill-rule="evenodd" clip-rule="evenodd" d="M20.285,39.559c2.106,0,4.115,0,6.197,0c0-1.576,0-3.084,0-4.646
		c-2.104,0-4.146,0-6.197,0C20.285,36.507,20.285,38.015,20.285,39.559z"/>
</g>
</svg>
