<?xml version="1.0" encoding="utf-8"?>
<!-- Generator: Adobe Illustrator 16.0.4, SVG Export Plug-In . SVG Version: 6.00 Build 0)  -->
<!DOCTYPE svg PUBLIC "-//W3C//DTD SVG 1.1//EN" "http://www.w3.org/Graphics/SVG/1.1/DTD/svg11.dtd">
<svg version="1.1" id="Layer_1" xmlns="http://www.w3.org/2000/svg" xmlns:xlink="http://www.w3.org/1999/xlink" x="0px" y="0px"
	 width="479.039px" height="162.172px" viewBox="0 0 479.039 162.172" enable-background="new 0 0 479.039 162.172"
	 xml:space="preserve">
<g>
	<path fill="#231F20" d="M1.396,53.183C1.396,23.092,20.508,0,52.012,0c26.662,0,43.481,13.826,46.765,36.496h-28.8
		c-1.564-6.562-7.697-11.976-16.821-11.976c-14.271,0-21.523,11.976-21.523,28.662c0,16.685,8.261,29.082,22.653,29.082
		c10.843,0,16.119-5.846,17.973-12.688h-19.11V48.475h47.628v55.313h-19.82l-2.283-10.827h-0.291
		c-6.404,9.272-16.82,13.254-29.227,13.254c-13.683,0-25.38-4.701-33.643-13.542C6.1,82.689,1.396,69.003,1.396,53.183"/>
	<polygon fill="#231F20" points="104.896,1.853 134.687,1.853 134.687,78.276 170.812,78.276 170.812,103.788 104.896,103.788 	"/>
	<path fill="#231F20" d="M244.756,92.961h-0.289c-6.406,9.272-16.82,13.254-29.221,13.254c-13.691,0-25.38-4.701-33.656-13.542
		c-9.399-9.988-14.118-23.67-14.118-39.49C167.473,23.092,186.591,0,218.096,0c26.66,0,43.474,13.826,46.765,36.496h-28.8
		c-1.576-6.555-7.698-11.969-16.828-11.969c-14.256,0-21.532,11.969-21.532,28.655c0,16.678,8.276,29.082,22.67,29.082
		c10.834,0,16.119-5.846,17.974-12.688h-19.111v-21.1h47.622v55.312h-19.815L244.756,92.961z"/>
</g>
<g>
	<path fill="#9F9FA4" d="M1.888,161.562H0v-43.55h17.42c4.06,0,7.207,0.996,9.441,2.984c2.232,1.99,3.35,4.854,3.35,8.588
		c0,2.844-0.661,5.178-1.979,7.005c-1.32,1.827-3.381,3.066-6.183,3.716v0.061c2.518,0.569,4.314,1.767,5.391,3.594
		c1.075,1.827,1.675,4.324,1.797,7.492c0.04,2.03,0.131,3.664,0.274,4.903c0.142,1.238,0.294,2.213,0.457,2.923
		c0.162,0.711,0.335,1.209,0.518,1.492c0.183,0.285,0.355,0.487,0.518,0.609v0.183h-2.071c-0.163-0.122-0.325-0.335-0.487-0.64
		c-0.163-0.305-0.325-0.812-0.487-1.522c-0.163-0.71-0.304-1.695-0.426-2.954c-0.122-1.258-0.204-2.924-0.244-4.994
		c-0.122-3.573-0.924-6.162-2.406-7.766c-1.483-1.604-3.97-2.406-7.461-2.406H1.888V161.562z M1.888,139.514H16.75
		c3.898,0,6.792-0.853,8.679-2.558c1.888-1.706,2.833-4.143,2.833-7.31s-0.935-5.613-2.802-7.34
		c-1.868-1.726-4.609-2.589-8.223-2.589H1.888V139.514z"/>
	<path fill="#9F9FA4" d="M34.779,145.726c0,2.153,0.274,4.133,0.822,5.939c0.548,1.807,1.34,3.36,2.375,4.659
		c1.036,1.3,2.334,2.325,3.898,3.076c1.562,0.752,3.359,1.127,5.39,1.127c2.883,0,5.228-0.721,7.035-2.162
		c1.806-1.441,3.076-3.462,3.807-6.062h1.827c-0.325,1.381-0.822,2.671-1.492,3.868c-0.67,1.198-1.533,2.244-2.588,3.137
		c-1.057,0.894-2.305,1.595-3.746,2.102c-1.442,0.508-3.056,0.762-4.842,0.762c-2.314,0-4.365-0.417-6.151-1.249
		c-1.788-0.832-3.289-1.979-4.507-3.441c-1.218-1.461-2.132-3.207-2.741-5.238c-0.609-2.029-0.914-4.242-0.914-6.639
		c0-2.273,0.325-4.395,0.975-6.365c0.649-1.969,1.573-3.674,2.771-5.116c1.197-1.44,2.669-2.567,4.416-3.38
		c1.745-0.812,3.715-1.219,5.908-1.219c1.665,0,3.167,0.244,4.507,0.73c1.34,0.488,2.537,1.179,3.594,2.071
		c1.746,1.462,3.024,3.33,3.837,5.604c0.812,2.273,1.258,4.872,1.34,7.795H34.779z M58.412,144.204
		c-0.244-4.223-1.392-7.451-3.441-9.686c-2.051-2.232-4.7-3.35-7.949-3.35c-1.705,0-3.289,0.305-4.75,0.914
		c-1.462,0.609-2.721,1.482-3.776,2.619c-1.057,1.137-1.899,2.508-2.528,4.111c-0.63,1.604-1.005,3.4-1.127,5.391H58.412z"/>
	<path fill="#9F9FA4" d="M89.597,150.964c-0.204,1.625-0.63,3.128-1.279,4.508c-0.65,1.381-1.513,2.568-2.589,3.563
		s-2.386,1.766-3.929,2.314c-1.543,0.548-3.289,0.822-5.237,0.822c-2.275,0-4.285-0.427-6.03-1.279
		c-1.746-0.853-3.219-2.02-4.416-3.502c-1.198-1.481-2.112-3.218-2.741-5.208c-0.63-1.989-0.944-4.121-0.944-6.396
		c0-2.273,0.314-4.396,0.944-6.364c0.629-1.97,1.542-3.686,2.741-5.147c1.197-1.462,2.67-2.619,4.416-3.472
		c1.745-0.854,3.755-1.279,6.03-1.279c3.45,0,6.304,0.854,8.558,2.559c2.253,1.705,3.664,4.142,4.232,7.309h-1.827
		c-0.649-2.924-1.97-5.025-3.959-6.304c-1.99-1.279-4.324-1.919-7.004-1.919c-1.868,0-3.554,0.355-5.056,1.066
		c-1.503,0.711-2.792,1.705-3.868,2.984c-1.077,1.279-1.909,2.812-2.498,4.599c-0.589,1.787-0.883,3.776-0.883,5.969
		s0.294,4.193,0.883,5.999c0.588,1.808,1.421,3.361,2.498,4.66c1.075,1.3,2.365,2.305,3.868,3.015
		c1.502,0.711,3.188,1.066,5.056,1.066c3.248,0,5.836-0.862,7.766-2.589c1.928-1.726,3.096-4.051,3.502-6.975H89.597z"/>
	<path fill="#9F9FA4" d="M106.712,131.778c-0.569-0.081-1.148-0.111-1.736-0.092c-0.589,0.021-1.168,0.092-1.736,0.213
		c-1.259,0.204-2.396,0.62-3.41,1.249c-1.016,0.63-1.889,1.411-2.619,2.345c-0.731,0.936-1.3,1.949-1.706,3.046
		s-0.608,2.192-0.608,3.289v19.734h-1.827v-31.489h1.827v6.395h0.121c0.812-1.745,1.889-3.126,3.229-4.142
		c1.34-1.015,2.802-1.645,4.386-1.888c0.689-0.244,1.391-0.396,2.102-0.457c0.71-0.061,1.37-0.051,1.979,0.03V131.778z"/>
	<path fill="#9F9FA4" d="M130.771,156.142h-0.122c-0.447,0.771-0.996,1.514-1.645,2.224c-0.65,0.711-1.411,1.34-2.284,1.888
		c-0.874,0.548-1.879,0.995-3.015,1.34c-1.138,0.345-2.437,0.518-3.898,0.518c-3.208,0-5.675-0.872-7.4-2.619
		c-1.727-1.745-2.589-4.039-2.589-6.883v-22.535h1.889v22.354c0,2.721,0.74,4.75,2.223,6.09c1.482,1.341,3.542,2.011,6.183,2.011
		c1.583,0,3.024-0.264,4.324-0.792c1.299-0.527,2.415-1.228,3.35-2.102c0.934-0.873,1.665-1.889,2.193-3.045
		c0.527-1.158,0.792-2.346,0.792-3.563v-20.952h1.827v31.489h-1.827V156.142z"/>
	<path fill="#9F9FA4" d="M140.027,122.398H138.2v-4.081h1.827V122.398z M140.027,161.562H138.2v-31.489h1.827V161.562z"/>
	<path fill="#9F9FA4" d="M143.499,130.073h4.567v-9.746h1.828v9.746h6.882v1.583h-6.882v24.912c0,1.3,0.283,2.244,0.853,2.832
		c0.568,0.589,1.562,0.883,2.984,0.883c1.056,0,2.01-0.161,2.862-0.487h0.122v1.584c-0.447,0.163-0.965,0.283-1.553,0.365
		c-0.59,0.081-1.168,0.122-1.736,0.122c-3.573,0-5.36-1.726-5.36-5.178v-25.033h-4.567V130.073z"/>
	<path fill="#9F9FA4" d="M182.115,161.562h-1.827v-22.354c0-2.681-0.691-4.68-2.071-5.999c-1.381-1.319-3.228-1.98-5.542-1.98
		c-1.462,0-2.803,0.254-4.021,0.762s-2.274,1.188-3.167,2.041c-0.894,0.852-1.584,1.838-2.071,2.953
		c-0.487,1.117-0.73,2.265-0.73,3.441v21.136h-1.827v-31.489h1.827v5.481h0.121c0.447-0.771,0.965-1.513,1.554-2.224
		c0.588-0.709,1.299-1.34,2.132-1.888c0.832-0.548,1.775-0.995,2.832-1.341c1.056-0.344,2.273-0.518,3.654-0.518
		c2.354,0,4.264,0.57,5.726,1.706c1.462,1.138,2.416,2.7,2.863,4.69h0.183c0.853-1.828,2.151-3.351,3.897-4.568
		c1.746-1.219,3.959-1.828,6.64-1.828c3.004,0,5.288,0.874,6.852,2.619c1.563,1.746,2.346,4.021,2.346,6.822v22.536h-1.827v-22.354
		c0-2.681-0.67-4.68-2.011-5.999c-1.34-1.319-3.228-1.98-5.664-1.98c-1.462,0-2.802,0.244-4.021,0.731
		c-1.218,0.487-2.253,1.138-3.105,1.949c-0.854,0.812-1.523,1.787-2.011,2.923c-0.487,1.138-0.73,2.336-0.73,3.594V161.562z"/>
	<path fill="#9F9FA4" d="M207.026,145.726c0,2.153,0.273,4.133,0.822,5.939c0.548,1.807,1.34,3.36,2.375,4.659
		c1.035,1.3,2.335,2.325,3.898,3.076c1.562,0.752,3.359,1.127,5.391,1.127c2.883,0,5.228-0.721,7.034-2.162s3.076-3.462,3.808-6.062
		h1.827c-0.326,1.381-0.822,2.671-1.492,3.868c-0.67,1.198-1.533,2.244-2.589,3.137c-1.057,0.894-2.305,1.595-3.746,2.102
		c-1.441,0.508-3.056,0.762-4.842,0.762c-2.314,0-4.366-0.417-6.152-1.249c-1.787-0.832-3.289-1.979-4.507-3.441
		c-1.219-1.461-2.132-3.207-2.741-5.238c-0.609-2.029-0.913-4.242-0.913-6.639c0-2.273,0.324-4.395,0.975-6.365
		c0.648-1.969,1.572-3.674,2.771-5.116c1.197-1.44,2.67-2.567,4.416-3.38s3.716-1.219,5.908-1.219c1.665,0,3.167,0.244,4.508,0.73
		c1.34,0.488,2.537,1.179,3.593,2.071c1.746,1.462,3.025,3.33,3.838,5.604c0.812,2.273,1.258,4.872,1.34,7.795H207.026z
		 M230.658,144.204c-0.243-4.223-1.391-7.451-3.44-9.686c-2.052-2.232-4.701-3.35-7.949-3.35c-1.705,0-3.289,0.305-4.751,0.914
		s-2.721,1.482-3.776,2.619s-1.898,2.508-2.527,4.111c-0.63,1.604-1.005,3.4-1.127,5.391H230.658z"/>
	<path fill="#9F9FA4" d="M238.149,135.737h0.121c0.447-0.771,1.015-1.532,1.706-2.284c0.689-0.751,1.492-1.41,2.405-1.979
		c0.914-0.568,1.97-1.025,3.168-1.371c1.197-0.344,2.548-0.518,4.05-0.518c3.127,0,5.543,0.874,7.248,2.619
		c1.706,1.746,2.559,4.021,2.559,6.822v22.536h-1.827v-22.354c0-2.681-0.741-4.68-2.224-5.999s-3.502-1.98-6.06-1.98
		c-1.625,0-3.117,0.254-4.478,0.762s-2.538,1.188-3.532,2.041c-0.996,0.852-1.767,1.838-2.314,2.953
		c-0.549,1.117-0.822,2.265-0.822,3.441v21.136h-1.827v-31.489h1.827V135.737z"/>
	<path fill="#9F9FA4" d="M262.026,130.073h4.567v-9.746h1.828v9.746h6.882v1.583h-6.882v24.912c0,1.3,0.283,2.244,0.853,2.832
		c0.568,0.589,1.562,0.883,2.984,0.883c1.056,0,2.01-0.161,2.862-0.487h0.122v1.584c-0.447,0.163-0.965,0.283-1.553,0.365
		c-0.59,0.081-1.168,0.122-1.736,0.122c-3.573,0-5.36-1.726-5.36-5.178v-25.033h-4.567V130.073z"/>
	<path fill="#9F9FA4" d="M291.079,141.646v19.917h-1.889v-43.55h15.897c3.735,0,6.7,0.854,8.893,2.559
		c1.421,0.934,2.507,2.162,3.259,3.685c0.751,1.522,1.127,3.36,1.127,5.513c0,3.898-1.138,6.852-3.411,8.861
		c-2.274,2.011-5.706,3.016-10.294,3.016H291.079z M291.079,139.94h13.46c4.183,0,7.208-0.893,9.076-2.681
		c1.867-1.786,2.802-4.283,2.802-7.491c0-3.207-1.005-5.674-3.016-7.4c-2.01-1.726-4.822-2.589-8.436-2.589h-13.887V139.94z"/>
	<path fill="#9F9FA4" d="M344.677,161.928c-1.381,0-2.355-0.396-2.923-1.188c-0.569-0.792-0.854-1.837-0.854-3.137v-2.132h-0.121
		c-0.366,0.894-0.904,1.746-1.614,2.559c-0.711,0.812-1.574,1.522-2.589,2.131c-1.016,0.609-2.162,1.097-3.441,1.462
		c-1.279,0.366-2.71,0.549-4.294,0.549c-3.006,0-5.432-0.751-7.278-2.254c-1.849-1.502-2.771-3.594-2.771-6.273
		c0-1.706,0.324-3.116,0.975-4.233c0.648-1.116,1.532-2.01,2.649-2.68c1.116-0.67,2.406-1.178,3.867-1.523
		c1.462-0.344,3.025-0.618,4.69-0.822c1.949-0.202,3.553-0.416,4.812-0.639s2.273-0.508,3.046-0.854
		c0.771-0.344,1.31-0.781,1.614-1.309c0.304-0.527,0.456-1.219,0.456-2.071v-0.487c0-5.238-2.923-7.857-8.771-7.857
		c-3.086,0-5.481,0.64-7.188,1.919c-1.705,1.278-2.66,3.3-2.862,6.06h-1.889c0.122-1.379,0.427-2.658,0.914-3.836
		s1.218-2.193,2.192-3.046s2.183-1.522,3.624-2.011c1.441-0.486,3.177-0.73,5.208-0.73c3.533,0,6.183,0.812,7.948,2.437
		c1.767,1.624,2.649,4,2.649,7.126v18.334c0,1.178,0.214,1.97,0.64,2.375c0.427,0.406,0.984,0.609,1.676,0.609
		c0.324,0,0.629-0.051,0.913-0.152c0.284-0.101,0.527-0.192,0.731-0.274h0.183v1.462c-0.204,0.122-0.498,0.233-0.884,0.335
		S345.164,161.928,344.677,161.928z M328.963,160.588c1.745,0,3.359-0.264,4.842-0.792c1.482-0.527,2.741-1.248,3.776-2.162
		c1.035-0.913,1.848-2,2.437-3.258c0.588-1.259,0.883-2.619,0.883-4.082v-7.064c-0.771,0.608-1.868,1.127-3.289,1.553
		c-1.422,0.426-3.513,0.803-6.273,1.127c-1.665,0.203-3.157,0.457-4.477,0.762c-1.32,0.305-2.437,0.74-3.35,1.309
		c-0.914,0.569-1.625,1.311-2.132,2.224c-0.509,0.913-0.762,2.081-0.762,3.502c0,1.259,0.243,2.325,0.73,3.198
		s1.127,1.583,1.919,2.132c0.792,0.548,1.685,0.943,2.68,1.188C326.942,160.466,327.947,160.588,328.963,160.588z"/>
	<path fill="#9F9FA4" d="M363.133,131.778c-0.569-0.081-1.148-0.111-1.736-0.092c-0.589,0.021-1.168,0.092-1.736,0.213
		c-1.259,0.204-2.396,0.62-3.41,1.249c-1.016,0.63-1.889,1.411-2.619,2.345c-0.731,0.936-1.3,1.949-1.706,3.046
		s-0.608,2.192-0.608,3.289v19.734h-1.827v-31.489h1.827v6.395h0.121c0.812-1.745,1.889-3.126,3.229-4.142
		c1.34-1.015,2.802-1.645,4.386-1.888c0.689-0.244,1.391-0.396,2.102-0.457c0.71-0.061,1.37-0.051,1.979,0.03V131.778z"/>
	<path fill="#9F9FA4" d="M364.959,130.073h4.567v-9.746h1.828v9.746h6.882v1.583h-6.882v24.912c0,1.3,0.283,2.244,0.853,2.832
		c0.568,0.589,1.562,0.883,2.984,0.883c1.056,0,2.01-0.161,2.862-0.487h0.122v1.584c-0.447,0.163-0.965,0.283-1.553,0.365
		c-0.59,0.081-1.168,0.122-1.736,0.122c-3.573,0-5.36-1.726-5.36-5.178v-25.033h-4.567V130.073z"/>
	<path fill="#9F9FA4" d="M384.145,135.737h0.121c0.447-0.771,1.015-1.532,1.706-2.284c0.689-0.751,1.492-1.41,2.405-1.979
		c0.914-0.568,1.97-1.025,3.168-1.371c1.197-0.344,2.548-0.518,4.05-0.518c3.127,0,5.543,0.874,7.248,2.619
		c1.706,1.746,2.559,4.021,2.559,6.822v22.536h-1.827v-22.354c0-2.681-0.741-4.68-2.224-5.999s-3.502-1.98-6.06-1.98
		c-1.625,0-3.117,0.254-4.478,0.762s-2.538,1.188-3.532,2.041c-0.996,0.852-1.767,1.838-2.314,2.953
		c-0.549,1.117-0.822,2.265-0.822,3.441v21.136h-1.827v-31.489h1.827V135.737z"/>
	<path fill="#9F9FA4" d="M410.944,145.726c0,2.153,0.273,4.133,0.822,5.939c0.548,1.807,1.34,3.36,2.375,4.659
		c1.035,1.3,2.335,2.325,3.898,3.076c1.562,0.752,3.359,1.127,5.391,1.127c2.883,0,5.228-0.721,7.034-2.162s3.076-3.462,3.808-6.062
		h1.827c-0.326,1.381-0.822,2.671-1.492,3.868c-0.67,1.198-1.533,2.244-2.589,3.137c-1.057,0.894-2.305,1.595-3.746,2.102
		c-1.441,0.508-3.056,0.762-4.842,0.762c-2.314,0-4.366-0.417-6.152-1.249c-1.787-0.832-3.289-1.979-4.507-3.441
		c-1.219-1.461-2.132-3.207-2.741-5.238c-0.609-2.029-0.913-4.242-0.913-6.639c0-2.273,0.324-4.395,0.975-6.365
		c0.648-1.969,1.572-3.674,2.771-5.116c1.197-1.44,2.67-2.567,4.416-3.38s3.716-1.219,5.908-1.219c1.665,0,3.167,0.244,4.508,0.73
		c1.34,0.488,2.537,1.179,3.593,2.071c1.746,1.462,3.025,3.33,3.838,5.604c0.812,2.273,1.258,4.872,1.34,7.795H410.944z
		 M434.576,144.204c-0.243-4.223-1.391-7.451-3.44-9.686c-2.052-2.232-4.701-3.35-7.949-3.35c-1.705,0-3.289,0.305-4.751,0.914
		s-2.721,1.482-3.776,2.619s-1.898,2.508-2.527,4.111c-0.63,1.604-1.005,3.4-1.127,5.391H434.576z"/>
	<path fill="#9F9FA4" d="M453.885,131.778c-0.569-0.081-1.148-0.111-1.736-0.092c-0.589,0.021-1.168,0.092-1.736,0.213
		c-1.259,0.204-2.396,0.62-3.41,1.249c-1.016,0.63-1.889,1.411-2.619,2.345c-0.731,0.936-1.3,1.949-1.706,3.046
		s-0.608,2.192-0.608,3.289v19.734h-1.827v-31.489h1.827v6.395h0.121c0.812-1.745,1.889-3.126,3.229-4.142
		c1.34-1.015,2.802-1.645,4.386-1.888c0.689-0.244,1.391-0.396,2.102-0.457c0.71-0.061,1.37-0.051,1.979,0.03V131.778z"/>
	<path fill="#9F9FA4" d="M456.442,151.878c0.243,2.802,1.278,4.955,3.105,6.456c1.828,1.503,4.426,2.254,7.797,2.254
		c3.167,0,5.604-0.659,7.309-1.979c1.706-1.319,2.559-3.076,2.559-5.269c0-1.056-0.163-1.979-0.487-2.771
		c-0.325-0.792-0.883-1.472-1.675-2.04s-1.827-1.066-3.106-1.492c-1.279-0.427-2.894-0.822-4.843-1.188
		c-3.817-0.649-6.649-1.594-8.496-2.833c-1.849-1.237-2.771-3.075-2.771-5.513c0-2.354,0.913-4.272,2.74-5.756
		c1.828-1.48,4.447-2.223,7.857-2.223c1.867,0,3.472,0.234,4.812,0.701c1.34,0.467,2.467,1.106,3.38,1.918
		c0.914,0.812,1.624,1.767,2.132,2.863c0.507,1.096,0.862,2.294,1.066,3.594h-1.828c-0.325-2.274-1.238-4.082-2.74-5.422
		c-1.503-1.34-3.776-2.01-6.822-2.01c-3.086,0-5.319,0.6-6.699,1.797c-1.382,1.198-2.071,2.711-2.071,4.537
		c0,0.936,0.172,1.747,0.518,2.438c0.345,0.69,0.914,1.299,1.705,1.826c0.792,0.529,1.828,0.986,3.106,1.371
		c1.279,0.387,2.853,0.741,4.721,1.066c1.908,0.324,3.572,0.721,4.994,1.188c1.421,0.467,2.599,1.057,3.533,1.766
		c0.934,0.711,1.634,1.564,2.102,2.559c0.466,0.996,0.7,2.203,0.7,3.624c0,2.721-1.057,4.873-3.167,6.456
		c-2.112,1.584-4.955,2.376-8.527,2.376c-2.071,0-3.878-0.265-5.421-0.792c-1.544-0.527-2.843-1.249-3.898-2.162
		c-1.057-0.914-1.868-2-2.437-3.259s-0.894-2.619-0.975-4.081H456.442z"/>
</g>
</svg>
