<?xml version="1.0" encoding="utf-8"?>
<!-- Generator: Adobe Illustrator 16.0.4, SVG Export Plug-In . SVG Version: 6.00 Build 0)  -->
<!DOCTYPE svg PUBLIC "-//W3C//DTD SVG 1.1//EN" "http://www.w3.org/Graphics/SVG/1.1/DTD/svg11.dtd">
<svg version="1.1" id="Layer_1" xmlns="http://www.w3.org/2000/svg" xmlns:xlink="http://www.w3.org/1999/xlink" x="0px" y="0px"
	 width="64px" height="64px" viewBox="0 0 64 64" enable-background="new 0 0 64 64" xml:space="preserve">
<g>
	<path d="M57.084,36.231c-1.77-2.104-4.838-2.927-7.192-1.476c-1.889,1.164-3.457,2.857-5.123,4.365
		c-0.599,0.541-1.067,1.227-1.331,1.537c-1.757-1.511-3.15-2.928-4.751-4.048c-5.855-4.093-12.489-5.528-19.521-5.34
		c-2.46,0.064-4.915,0.388-7.439,0.599c-0.075-0.395-0.153-0.812-0.231-1.228c-0.979,0-1.952,0-2.926,0v26.612
		c0.988,0,1.976,0,2.962,0c0.13-1.282,0.25-2.457,0.376-3.691c0.887,0,1.696-0.188,2.369,0.035c1.999,0.662,4.043,1.3,5.886,2.29
		c2.762,1.483,5.595,2.653,8.682,3.179c1.084,0.186,2.182,0.291,3.274,0.434c0.709,0,1.42,0,2.131,0
		c0.386-0.085,0.768-0.212,1.16-0.25c3.001-0.291,5.819-1.191,8.39-2.742c5.481-3.305,9.564-8.14,13.672-12.896
		C59.229,41.575,58.855,38.339,57.084,36.231z M55.373,41.713c-0.294,0.582-0.704,1.133-1.161,1.601
		c-2.539,2.606-5.08,5.214-7.675,7.765c-4.958,4.877-11.007,6.286-17.651,5.037c-2.382-0.448-4.703-1.533-6.887-2.651
		c-3.076-1.575-6.125-3.02-9.906-2.713c0-5.408,0-10.622,0-15.95c6.657-1.459,13.325-1.21,19.735,1.395
		c2.584,1.05,4.936,2.732,7.278,4.301c1.406,0.941,1.768,2.581,1.233,3.873c-0.577,1.401-1.931,2.27-3.645,2.089
		c-1.311-0.137-2.614-0.465-3.885-0.83c-1.527-0.44-3.016-1.009-4.647-1.565c-0.344,0.84-0.672,1.645-1.056,2.58
		c3.371,1.275,6.664,2.626,10.259,2.673c2.288,0.029,3.964-1.198,5.253-3.112c1.152-1.709,2.444-3.342,3.821-4.875
		c1.151-1.282,2.5-2.392,3.789-3.546c1.283-1.147,2.758-1.198,4.114-0.197C55.697,38.582,56.135,40.209,55.373,41.713z"/>
	<path d="M31.07,30.621c7.562,0,13.715-6.152,13.715-13.714c0-7.562-6.153-13.713-13.715-13.713S17.356,9.345,17.356,16.907
		C17.356,24.469,23.509,30.621,31.07,30.621z M31.07,5.856c6.094,0,11.051,4.958,11.051,11.051S37.164,27.958,31.07,27.958
		c-6.093,0-11.051-4.958-11.051-11.051S24.977,5.856,31.07,5.856z"/>
	<path d="M27.312,16.128c0.291,0.239,0.639,0.432,1.042,0.578c0.403,0.146,0.844,0.273,1.323,0.382l0.756,0.172v2.138
		c-0.614-0.047-1.231-0.148-1.853-0.304c-0.622-0.157-1.171-0.365-1.65-0.625h-0.351v2.278c0.432,0.203,1.03,0.372,1.794,0.507
		c0.764,0.135,1.438,0.206,2.021,0.211v2.785h1.358v-2.832c1.223-0.083,2.203-0.439,2.941-1.068c0.738-0.63,1.107-1.384,1.107-2.263
		c0-0.832-0.276-1.48-0.831-1.947c-0.554-0.465-1.418-0.812-2.594-1.041l-0.624-0.125v-1.981c0.556,0.036,1.079,0.125,1.567,0.265
		c0.49,0.141,0.918,0.317,1.287,0.53h0.344v-2.247c-0.369-0.151-0.875-0.284-1.518-0.397c-0.643-0.115-1.202-0.183-1.681-0.203
		V9.138h-1.358v1.817c-1.253,0.115-2.234,0.448-2.941,0.999c-0.708,0.551-1.061,1.214-1.061,1.989c0,0.515,0.081,0.948,0.242,1.299
		C26.794,15.594,27.021,15.889,27.312,16.128z M31.72,17.432c0.275,0.041,0.553,0.136,0.831,0.285
		c0.277,0.147,0.418,0.373,0.418,0.674c0,0.297-0.123,0.521-0.367,0.675c-0.245,0.153-0.539,0.253-0.882,0.301V17.432z
		 M29.593,13.254c0.273-0.149,0.582-0.236,0.925-0.262v1.81c-0.536-0.099-0.892-0.215-1.069-0.351
		c-0.177-0.135-0.265-0.326-0.265-0.569C29.184,13.611,29.321,13.401,29.593,13.254z"/>
</g>
</svg>
